<svg xmlns="http://www.w3.org/2000/svg" width="101" height="26" viewBox="0 0 101 26">
    <path fill="#FFF" d="M77.746 7.313c1.706 0 2.972.657 3.714 1.835h.055l.165-1.561h3.632v11.892c0 4-2.834 6.521-7.373 6.521-2.12 0-3.935-.466-5.118-1.206V20.41h.165c.908 1.014 2.614 1.699 4.402 1.699 2.174 0 3.412-.959 3.522-2.685h-.055c-.77.712-1.816 1.096-3.11 1.096-3.604 0-6.245-2.713-6.245-6.604 0-3.89 2.641-6.604 6.246-6.604zM6.5 15.438c0 3.59-2.91 6.5-6.5 6.5v-6.5h6.5zm37.496-8.126c3.93 0 6.379 2.443 6.379 6.345v1.488h-8.64c.377 1.516 1.696 2.19 3.5 2.19 1.776 0 3.31-.505 4.252-1.46h.161v4.183c-.996.674-2.691 1.067-4.656 1.067-4.495 0-7.617-2.864-7.617-6.906 0-4.043 2.745-6.906 6.621-6.906zm19.125 0c1.706 0 2.971.674 3.714 1.881h.055l.165-1.6h3.632v13.251h-3.632l-.165-1.6h-.055c-.743 1.207-2.008 1.881-3.714 1.881-3.605 0-6.246-2.92-6.246-6.906 0-3.987 2.641-6.906 6.246-6.906zm30.723 0c4.051 0 6.906 2.864 6.906 6.907 0 4.042-2.855 6.906-6.906 6.906-4.052 0-6.906-2.864-6.906-6.906 0-4.043 2.854-6.906 6.906-6.906zM30.197 2.438c4.74 0 7.178 2.1 7.178 6.138s-2.439 6.138-7.178 6.138h-3.215v5.6h-5.044V2.438zM56.063.813v19.5H52V.813h4.063zm7.8 10.486c-1.513 0-2.53 1.18-2.53 2.92s1.017 2.92 2.53 2.92c1.514 0 2.532-1.18 2.532-2.92s-1.018-2.92-2.531-2.92zm29.98 0c-1.495 0-2.5 1.18-2.5 2.92s1.005 2.92 2.5 2.92c1.496 0 2.502-1.18 2.502-2.92s-1.006-2.92-2.501-2.92zm-15.354-.096c-1.514 0-2.532 1.014-2.532 2.713s1.018 2.713 2.532 2.713c1.513 0 2.531-1.014 2.531-2.713s-1.018-2.713-2.531-2.713zM7.312 0c4.04 0 7.313 3.274 7.313 7.312 0 4.04-3.274 7.313-7.313 7.313V0zM3.25 7.313c1.795 0 3.25 1.455 3.25 3.25 0 1.794-1.455 3.25-3.25 3.25S0 12.357 0 10.563c0-1.795 1.455-3.25 3.25-3.25zm40.88 3.79c-1.076 0-2.099.617-2.395 1.852h4.791c-.269-1.263-1.184-1.852-2.395-1.852zM29.948 6.799h-2.965v3.553h2.965c1.635 0 2.328-.538 2.328-1.777 0-1.238-.693-1.776-2.328-1.776zM6.5 0v6.5H0C0 2.91 2.91 0 6.5 0z"/>
</svg>
